# xmcd
#
# Track frame offsets:
#	150
#	13340
#	28058
#	44251
#	56586
#	74746
#	90534
#	104659
#	117904
#	132269
#	148089
#	162477
#	180222
#	198497
#
# Disc length: 2867 seconds
#
# Revision: 3
# Processed by: cddbd v1.5.2PL0 Copyright (c) Steve Scherf et al.
# Submitted via: audiograbber 1.83.01
#
DISCID=cf0b310e
DTITLE=Various Artist - Hot Hits Country Vol. 60
DYEAR=1996
DGENRE=Country
TTITLE0=Clay Walker - Bury The Shovel
TTITLE1=Trisha Yearwood - Everybody Knows
TTITLE2=Lonestar - When Cowboys Didn't Dance
TTITLE3=Mark Chesnutt - It's A Little Too Late
TTITLE4=Faith Hill - I Can't Do That Anymore
TTITLE5=Daryle Singletary - Amen Kind Of Love
TTITLE6=Wade Hayes - Where Do I Go To Start All Over
TTITLE7=Paul Jefferson - I Might Just Make It
TTITLE8=Helen Darling - Full Deck Of Cards
TTITLE9=Dolly Parton - Just When I Needed You Most
TTITLE10=Aaron Tippin - How's The Radio Know
TTITLE11=Pam Tillis - Betty's Got A Bass Boat
TTITLE12=Marty Stuart - You Can't Stop Love
TTITLE13=Chris LeDoux - Five Dollar Fine
EXTD=
EXTT0=
EXTT1=
EXTT2=
EXTT3=
EXTT4=
EXTT5=
EXTT6=
EXTT7=
EXTT8=
EXTT9=
EXTT10=
EXTT11=
EXTT12=
EXTT13=
PLAYORDER=
